# xmcd
#
# Track frame offsets: 
#        150
#        14047
#        27845
#        40570
#        56707
#        68295
#        80930
#        98637
#        110400
#        122755
#        141812
#        155102
#        172667
#        190897
#
# Disc length: 2825 seconds
#
# Revision: 2
# Processed by: cddbd v1.5.2PL0 Copyright (c) Steve Scherf et al.
# Submitted via: ExactAudioCopyFreeDBPlugin 1.0
#
DISCID=b40b070e
DTITLE=Various Artist - Freight Train Blues:  Classic Railroad Songs,
DTITLE=Volume 4 [Rounder]
DYEAR=2000
DGENRE=Trains
TTITLE0=Marty Stuart - Blue Train
TTITLE1=Laurie Lewis and Kathy Kallick - Don't You See That Train
TTITLE2=Don Edwards with Tom Morrell and the Time-Warp Tophands - One 
TTITLE2=Way Ticket Back Home
TTITLE3=Kathy Chiavola - It Won't Be Long
TTITLE4=Red Knuckles and The Traiblazers - Dixie Cannonball
TTITLE5=Doc and Merle Watson - Freight Train Blues
TTITLE6=Lonesome River Band - Hobo Blues
TTITLE7=Nashville Bluegrass Band - Get a Transfer
TTITLE8=NRBQ - Next Stop Brattleboro
TTITLE9=Fred Eaglesmith - I Like Trains
TTITLE10=Pure Prairie League - Kansas City Southern
TTITLE11=Kate Campbell - Trains Don't Run from Nashville
TTITLE12=Joe Ely - Boxcars
TTITLE13=Asleep at the Wheel - My Baby Thinks She's A Train
EXTD=Rounder Records Corp., 2000
EXTT0=
EXTT1=
EXTT2=
EXTT3=
EXTT4=
EXTT5=
EXTT6=
EXTT7=
EXTT8=
EXTT9=
EXTT10=
EXTT11=
EXTT12=
EXTT13=
PLAYORDER=
